<svg width="35" height="32" viewBox="0 0 35 32" fill="none" xmlns="http://www.w3.org/2000/svg">
<path d="M20.8624 1.32647C26.3592 -1.98334 33.7752 1.19281 34.6183 7.60479V7.59795C34.9953 10.4723 33.8643 13.3402 31.671 15.2698C30.1152 16.6433 28.1961 17.4473 26.0782 17.4808C24.6253 17.5009 22.5488 17.4609 22.3292 19.2962C22.1922 20.4618 23.3639 21.1122 23.8781 21.9964C24.3167 22.7535 24.5838 23.5982 24.6935 24.429C25.1801 28.114 22.5351 31.4705 18.7999 31.9397C15.0303 32.4155 11.603 29.8289 11.1163 26.1438C10.6642 22.7001 13.3031 18.9152 17.004 18.7142C17.8675 18.6673 18.683 18.6799 19.3409 18.0501C19.7315 17.6816 19.9437 17.1526 19.8751 16.6233C19.7997 16.027 19.4094 15.672 18.9913 15.2767C17.5177 13.8964 16.5789 12.0403 16.3185 10.0638C15.8662 6.6065 17.881 3.1221 20.8624 1.32647ZM1.06848 4.88506C2.81621 2.66733 6.05765 2.25862 8.32629 3.96709C10.4442 5.56173 11.1027 8.95856 9.2384 10.9954C8.79979 11.4711 8.3615 11.893 8.35461 12.5696C8.34776 12.9716 8.52564 13.3608 8.84778 13.6087C9.21093 13.8898 9.61534 13.8761 10.0538 13.8694C11.596 13.8426 13.1112 14.3382 14.3243 15.2562C14.619 15.4772 14.8247 15.7724 15.0714 16.0403C14.3518 16.2748 13.6386 16.5701 12.9532 16.9788H12.9669C9.73193 18.9219 7.54571 22.7004 8.03918 26.4524C8.0666 26.7003 8.14158 26.9349 8.19641 27.1761C7.40824 26.955 6.6338 26.6398 5.92102 26.1038C4.14592 24.7705 3.18634 22.6534 3.30286 20.4759C3.38511 18.9348 3.96792 17.5011 5.07825 16.3821C5.83902 15.6116 6.96913 14.5533 6.08508 13.4612C5.52306 12.7711 4.53628 13.0391 3.78235 12.8313C3.13146 12.6572 2.53552 12.3487 2.02161 11.9603C-0.246947 10.2518 -0.665318 7.0827 1.06848 4.88506Z" fill="url(#paint0_linear_129_276)"/>
<defs>
<linearGradient id="paint0_linear_129_276" x1="22.8778" y1="1.90735e-05" x2="22.8778" y2="31.9963" gradientUnits="userSpaceOnUse">
<stop stop-color="#B168FF"/>
<stop offset="1" stop-color="#0035E5"/>
</linearGradient>
</defs>
</svg>
