<svg width="181" height="32" viewBox="0 0 181 32" fill="none" xmlns="http://www.w3.org/2000/svg">
<path d="M20.8622 1.3266C26.3589 -1.98303 33.7749 1.19309 34.618 7.60492V7.59808C34.9948 10.4723 33.8639 13.3404 31.6708 15.27C30.115 16.6434 28.1957 17.4473 26.078 17.4809C24.625 17.501 22.5483 17.4615 22.329 19.2973C22.1924 20.4627 23.3638 21.1132 23.8778 21.9975C24.3162 22.7544 24.5836 23.5986 24.6932 24.4291C25.1796 28.1139 22.5345 31.4706 18.7997 31.9399C15.0303 32.4156 11.6031 29.8296 11.1161 26.145C10.6637 22.7011 13.3026 18.9153 17.0038 18.7143C17.8672 18.6674 18.6828 18.6799 19.3407 18.0502C19.7311 17.6818 19.9442 17.1526 19.8758 16.6235C19.8004 16.0273 19.409 15.672 18.9911 15.2768C17.5176 13.8967 16.5787 12.0403 16.3182 10.0639C15.8659 6.60668 17.8808 3.12221 20.8622 1.3266ZM1.06821 4.88519C2.81591 2.6675 6.05739 2.25883 8.32602 3.96722C10.4436 5.56198 11.1023 8.95882 9.23813 10.9955C8.79954 11.4712 8.36128 11.8932 8.35434 12.5698C8.34759 12.9717 8.52546 13.361 8.84751 13.6088C9.21057 13.8897 9.61521 13.8763 10.0536 13.8696C11.5956 13.8429 13.111 14.3384 14.3241 15.2563C14.6186 15.4774 14.8245 15.7726 15.0711 16.0405C14.3515 16.275 13.6383 16.5703 12.953 16.9789H12.9666C9.73168 18.922 7.54549 22.7005 8.03892 26.4526C8.06636 26.7003 8.14134 26.9352 8.19614 27.1762C7.40814 26.9551 6.6334 26.6397 5.92075 26.1039C4.14579 24.7707 3.18618 22.6534 3.30259 20.476C3.38486 18.935 3.96768 17.5012 5.07798 16.3823C5.83867 15.6118 6.96835 14.5533 6.08481 13.4614C5.52289 12.7715 4.53593 13.039 3.78208 12.8315C3.13135 12.6573 2.53516 12.3487 2.02134 11.9604C-0.247231 10.2519 -0.665625 7.08284 1.06821 4.88519ZM144.377 7.49457C146.638 7.49469 148.667 8.17141 150.408 9.51801C151.1 10.0607 151.875 10.8584 152.704 11.8832C152.779 11.9837 152.766 12.1311 152.663 12.2114L151.704 12.9623C151.656 13.0024 151.587 13.0158 151.525 13.0092C151.457 12.9959 151.402 12.9684 151.361 12.9155C150.676 12.0314 150.079 11.3739 149.593 10.9584C148.894 10.3756 148.07 9.90671 147.152 9.57172C145.124 8.84152 142.972 8.9154 141.039 9.77289C139.983 10.2419 139.058 10.9054 138.276 11.7563C136.81 13.344 136.07 15.193 136.07 17.2563C136.07 18.3282 136.289 19.3743 136.727 20.3725C137.166 21.3638 137.797 22.2551 138.605 23.0053C140.216 24.5059 142.129 25.2631 144.281 25.2631C146.07 25.2629 147.756 24.6934 149.291 23.5746C150.62 22.6032 151.422 21.3233 151.655 19.7758C151.696 19.5415 151.724 19.2332 151.752 18.8383H145.412C145.282 18.8383 145.172 18.7301 145.172 18.603V17.5043C145.172 17.3772 145.282 17.27 145.412 17.27H153.314L153.307 17.2836C153.437 17.284 153.547 17.3909 153.547 17.518C153.547 18.717 153.472 19.6888 153.321 20.3989C153.17 21.1155 152.889 21.8261 152.485 22.5092C151.745 23.7553 150.648 24.788 149.223 25.5786C147.674 26.4293 146.015 26.8577 144.295 26.8578C142.904 26.8578 141.532 26.5695 140.223 25.9868C138.915 25.4107 137.77 24.5865 136.817 23.5483C135.179 21.7527 134.35 19.6283 134.349 17.2231C134.349 15.8364 134.658 14.4829 135.261 13.1967C135.864 11.9171 136.728 10.798 137.817 9.87347C139.681 8.29896 141.889 7.49457 144.377 7.49457ZM52.1229 7.47406C53.4455 7.47413 54.7555 7.76301 56.0233 8.33246V8.31879C57.284 8.88158 58.4087 9.6855 59.3612 10.7104C61.0675 12.5327 61.9383 14.691 61.9383 17.143C61.9382 18.4962 61.6565 19.8098 61.0877 21.0424C60.5257 22.2751 59.7104 23.3676 58.6756 24.2787C56.743 25.9804 54.4876 26.8382 51.9725 26.8383C50.5951 26.8383 49.2443 26.5561 47.9491 25.9868C46.654 25.4241 45.5159 24.62 44.5633 23.5952C42.8637 21.7661 42 19.5747 41.9999 17.0825C41.9999 14.3488 43.1035 11.9767 45.2831 10.0336C47.1883 8.33869 49.4912 7.4741 52.1229 7.47406ZM66.3446 14.8383C66.4746 14.8386 66.5848 14.9455 66.5848 15.0727V21.7592C66.5848 22.8913 66.7014 23.689 66.9413 24.1245C67.14 24.5128 67.4627 24.8078 67.9422 25.0287C68.833 25.4571 69.95 25.4443 70.8133 25.0024C71.2518 24.7813 71.5541 24.4929 71.7459 24.1313C71.9789 23.6892 72.1023 22.8981 72.1024 21.7661V15.0795C72.1024 14.9524 72.2116 14.8444 72.3416 14.8442H73.4725C73.6025 14.8444 73.7127 14.9524 73.7127 15.0795V22.1616C73.7127 23.1661 73.6233 23.8963 73.4247 24.392C73.0957 25.2227 72.4785 25.866 71.6083 26.3149C70.923 26.6632 70.1687 26.8383 69.3534 26.8383C67.8734 26.8382 66.7012 26.3417 65.8583 25.3705C65.4266 24.8615 65.1662 24.2782 65.077 23.6352C65.0153 23.22 64.9813 22.7172 64.9813 22.1547V15.0727C64.9813 14.9455 65.0905 14.8385 65.2206 14.8383H66.3446ZM88.9354 14.603C90.6418 14.6031 92.0741 15.2003 93.2049 16.3862V15.0795C93.2049 14.9523 93.315 14.8443 93.4452 14.8442H94.5692L94.5624 14.851C94.6922 14.8513 94.8023 14.9584 94.8026 15.0854V26.3149C94.8023 26.4418 94.6922 26.55 94.5624 26.5502H93.4383C93.3083 26.5502 93.1984 26.4419 93.1981 26.3149V24.9955C92.7527 25.5045 92.2317 25.9197 91.6424 26.2211C90.8544 26.6298 89.9495 26.8383 88.9627 26.8383C87.1468 26.8383 85.6453 26.1544 84.5077 24.808C83.5757 23.7027 83.1025 22.3086 83.1024 20.6674C83.1024 18.6172 83.7883 17.0151 85.1385 15.9096C86.2077 15.0388 87.4825 14.603 88.9354 14.603ZM128.571 14.5971C129.983 14.5973 131.06 15.2534 131.779 16.5463C131.813 16.5997 131.82 16.667 131.8 16.727C131.779 16.787 131.731 16.8408 131.677 16.8676L130.717 17.3373C130.6 17.3907 130.463 17.3502 130.401 17.2368C129.976 16.4598 129.401 16.0847 128.647 16.0844C128.092 16.0844 127.646 16.2783 127.276 16.687C127.036 16.9616 126.913 17.2766 126.913 17.645C126.913 18.0667 127.084 18.4025 127.447 18.6703C127.749 18.8981 128.271 19.1535 128.997 19.4213C130.107 19.8366 130.848 20.1784 131.252 20.4731H131.245C132.06 21.076 132.471 21.9336 132.472 23.0385C132.471 24.2711 132.025 25.257 131.135 25.9604C130.408 26.5364 129.524 26.8314 128.51 26.8315C127.132 26.8314 126.008 26.3286 125.179 25.3373C124.822 24.9221 124.535 24.3654 124.336 23.6957C124.302 23.5753 124.37 23.448 124.493 23.4077L125.576 23.0727C125.699 23.0394 125.83 23.0997 125.871 23.2202C126.385 24.6467 127.242 25.3441 128.475 25.3442C129.25 25.3441 129.84 25.0822 130.285 24.5463C130.641 24.1177 130.819 23.6213 130.819 23.0922C130.819 22.5634 130.648 22.1346 130.299 21.7797C130.148 21.6323 129.757 21.3771 128.777 21.0287C127.66 20.6269 126.81 20.2116 126.255 19.7963C125.59 19.3006 125.255 18.5966 125.255 17.7192C125.255 16.7343 125.645 15.9367 126.406 15.3471C127.05 14.8516 127.776 14.5972 128.571 14.5971ZM179.784 6.00043C179.914 6.00074 180.024 6.10774 180.024 6.2348V26.309C180.024 26.4358 179.914 26.5431 179.784 26.5434H178.66C178.53 26.5434 178.42 26.436 178.42 26.309V24.9887C177.974 25.4978 177.453 25.9138 176.864 26.2153C176.076 26.6238 175.171 26.8314 174.184 26.8315C172.368 26.8315 170.867 26.1475 169.729 24.8012C168.797 23.6958 168.324 22.3018 168.324 20.6606C168.324 18.6103 169.01 17.0093 170.36 15.9037C171.429 15.0328 172.704 14.5971 174.157 14.5971C175.863 14.5973 177.296 15.1936 178.427 16.3793V6.2348C178.427 6.10756 178.537 6.00043 178.667 6.00043H179.784ZM116.338 14.5834C118.037 14.5837 119.531 15.2136 120.771 16.4662C121.895 17.5985 122.472 19.0258 122.472 20.7006C122.471 22.63 121.738 24.2051 120.285 25.3842C119.106 26.3421 117.749 26.8245 116.241 26.8246C115.323 26.8246 114.425 26.6302 113.582 26.2485C112.739 25.8667 112.012 25.3302 111.416 24.6537C110.457 23.5417 109.971 22.1946 109.971 20.6606C109.971 18.952 110.615 17.4842 111.883 16.2983C113.096 15.1729 114.597 14.5971 116.338 14.5971V14.5834ZM103.205 14.5971C103.904 14.5972 104.577 14.7507 105.186 15.0522V15.0659C105.81 15.3673 106.282 15.7765 106.598 16.2787C107.002 16.942 107.194 17.9068 107.194 19.2328V26.3149C107.194 26.4418 107.084 26.55 106.954 26.5502H105.83C105.7 26.55 105.591 26.4419 105.591 26.3149V19.2328C105.591 18.2151 105.467 17.4842 105.214 17.0688C105.043 16.781 104.761 16.5466 104.385 16.3725C104.001 16.1917 103.561 16.0972 103.089 16.0971C101.924 16.0971 101.087 16.5598 100.532 17.5112C100.272 17.9466 100.114 18.4095 100.053 18.8852C99.991 19.3406 99.9569 19.8702 99.9569 20.4662V26.309C99.9564 26.4358 99.8464 26.5431 99.7166 26.5434H98.5926C98.4627 26.5434 98.3529 26.436 98.3524 26.309V15.0795C98.3524 14.9522 98.4624 14.8442 98.5926 14.8442H99.7166C99.8467 14.8444 99.9569 14.9524 99.9569 15.0795V16.0971C100.176 15.8294 100.388 15.6152 100.6 15.4545C101.32 14.8851 102.204 14.5972 103.205 14.5971ZM165.308 14.8442C165.441 14.8444 165.549 14.9502 165.549 15.0795V26.309C165.548 26.438 165.44 26.5431 165.308 26.5434H164.184C164.052 26.5434 163.945 26.4381 163.944 26.309V15.0795C163.944 14.95 164.052 14.8442 164.184 14.8442H165.308ZM81.1288 14.5971C81.533 14.5972 81.9792 14.6977 82.4588 14.8852C82.5201 14.9055 82.5683 14.9592 82.5956 15.0258C82.6226 15.0926 82.6092 15.1601 82.575 15.2202L81.9715 16.185C81.903 16.2916 81.7587 16.3249 81.6493 16.2651C81.3825 16.1247 81.1495 16.0504 80.951 16.0502C80.3547 16.0502 79.8536 16.3253 79.4081 16.8881C79.134 17.2365 78.9629 17.7329 78.8944 18.3559C78.8602 18.6778 78.8397 19.3211 78.8397 20.2651V26.2953C78.8394 26.4223 78.7293 26.5295 78.5995 26.5297H77.4754C77.3455 26.5296 77.2365 26.4223 77.2362 26.2953V15.0659C77.2362 14.9386 77.3453 14.8316 77.4754 14.8315H78.5995C78.7295 14.8317 78.8397 14.9387 78.8397 15.0659V15.7221C79.4359 14.9785 80.2036 14.5971 81.1288 14.5971ZM160.483 14.5971C160.888 14.5972 161.341 14.6977 161.813 14.8852C161.875 14.9055 161.923 14.9592 161.95 15.0258C161.977 15.0926 161.964 15.1601 161.93 15.2202L161.326 16.185C161.257 16.2916 161.113 16.3249 161.004 16.2651C160.737 16.1247 160.504 16.0504 160.306 16.0502C159.709 16.0502 159.201 16.3253 158.763 16.8881C158.488 17.2365 158.317 17.7329 158.249 18.3559C158.215 18.6778 158.194 19.3211 158.194 20.2651V26.2953C158.194 26.4223 158.084 26.5295 157.954 26.5297H156.83C156.7 26.5296 156.591 26.4223 156.591 26.2953V15.0659C156.591 14.9386 156.7 14.8316 156.83 14.8315H157.954C158.084 14.8317 158.194 14.9387 158.194 15.0659V15.7221C158.79 14.9785 159.558 14.5971 160.483 14.5971ZM88.9286 16.0844C87.7429 16.0844 86.7424 16.5399 85.8651 17.4711C85.1249 18.2684 84.7479 19.3337 84.7479 20.6469C84.748 22.0537 85.1862 23.2135 86.0428 24.0844C86.872 24.9349 87.8594 25.3441 89.0448 25.3442C90.4015 25.3441 91.4714 24.8213 92.3075 23.7563H92.2938C92.938 22.939 93.2605 21.8592 93.2606 20.5395C93.2605 19.0927 92.8075 17.9801 91.9168 17.2231C91.0397 16.4661 90.0318 16.0845 88.9286 16.0844ZM116.104 16.0844C114.72 16.0844 113.603 16.6135 112.691 17.7055C111.985 18.5631 111.622 19.5753 111.622 20.7143C111.622 22.0339 112.088 23.1594 113.007 24.0571C113.87 24.9076 114.939 25.3441 116.186 25.3442C116.872 25.3441 117.537 25.1965 118.175 24.9018C118.812 24.6137 119.353 24.1978 119.799 23.6821C120.477 22.8716 120.827 21.8597 120.827 20.6743C120.827 19.3479 120.353 18.2416 119.429 17.3774C118.51 16.5199 117.393 16.0845 116.104 16.0844ZM174.15 16.0844C172.965 16.0844 171.964 16.54 171.087 17.4711C170.347 18.2684 169.97 19.3337 169.97 20.6469C169.97 22.0537 170.408 23.2135 171.265 24.0844C172.094 24.9349 173.081 25.3442 174.266 25.3442C175.623 25.3441 176.693 24.8213 177.529 23.7563H177.515C178.16 22.939 178.481 21.8592 178.481 20.5395C178.481 19.0927 178.029 17.9801 177.139 17.2231C176.261 16.4661 175.253 16.0846 174.15 16.0844ZM51.8416 9.06195C50.7591 9.06201 49.6693 9.31023 48.6073 9.79242C47.5381 10.2748 46.5986 10.9652 45.8104 11.8295C44.4397 13.3303 43.7411 15.1199 43.7411 17.1567C43.7412 18.2887 43.9744 19.3876 44.4334 20.4057C44.8926 21.4238 45.5574 22.3286 46.4071 23.0922C48.0108 24.5325 49.8823 25.2631 51.9725 25.2631C53.1169 25.263 54.2482 25.015 55.3309 24.5327C56.4135 24.0503 57.3593 23.3605 58.1405 22.4965H58.1473C59.5179 20.9959 60.2174 19.1797 60.2176 17.103C60.2176 14.8184 59.3196 12.8409 57.5448 11.2397C55.9616 9.79255 54.0416 9.06206 51.8416 9.06195ZM163.869 10.476C164.342 10.007 165.144 9.98695 165.644 10.476C165.891 10.7037 166.014 10.9855 166.015 11.3403C166.014 11.6952 165.884 11.9906 165.638 12.225C165.398 12.466 165.11 12.5862 164.761 12.5864C164.411 12.5864 164.109 12.4659 163.862 12.225C163.616 11.9839 163.492 11.6953 163.492 11.3471C163.492 10.9987 163.622 10.7105 163.869 10.476Z" fill="black"/>
</svg>
